<svg width="68" height="74" viewBox="0 0 68 74" fill="none" xmlns="http://www.w3.org/2000/svg">
<path d="M58.5509 33.8648C48.5405 48.8978 21.8122 60.4265 17.3437 60.6874C12.8752 60.9482 12.3255 60.7492 11.8238 60.6874C6.63622 60.0478 6.95428 65.0795 6.30388 66.686C5.65349 68.2924 3.85857 71.779 2.8868 73.2062C2.39931 73.9222 1.8354 73.7278 0.865416 73.7278C0.258273 72.9454 -0.0775012 72.6766 0.258279 71.9021C4.46392 64.5995 8.67644 56.0564 14.2053 49.6219C18.4055 44.7336 22.8768 40.0751 27.1888 35.2802C27.7414 34.6657 28.1737 33.8808 28.4268 33.0998C28.5145 32.829 27.8038 31.9575 27.6063 32.0024C26.8171 32.1821 25.8724 32.4238 25.3666 32.9824C19.8137 39.1155 14.3286 45.3091 8.83721 51.4968C8.2099 52.2037 7.65626 52.9749 6.52425 53.6156C6.58756 52.6642 6.56718 51.6988 6.72637 50.7634C11.2626 24.1114 32.2922 3.85781 59.119 0.342768C61.2805 0.0595621 63.4847 0.0821959 65.6706 0.00365021C67.085 -0.04717 67.9718 0.422033 67.9952 2.08096C68.0843 8.40077 66.927 14.5107 64.8324 20.4383C64.504 21.3678 63.4551 22.1842 62.5469 22.7477C60.1918 24.2092 57.7294 25.5005 55.3097 26.8597C55.3383 27.1009 55.3669 27.3422 55.3954 27.5835C56.3471 27.5835 57.3021 27.5325 58.2499 27.593C61.1186 27.7761 61.577 28.6844 60.1184 31.2346C59.6433 32.0652 59.1404 32.8802 58.5509 33.8648Z" fill="#6160FF"/>
<path d="M9.86885 60.7706C10.2668 60.0739 10.0201 59.189 9.31796 58.7942C8.61579 58.3994 7.724 58.6441 7.32609 59.3408L0.190214 71.8349C-0.207702 72.5316 0.0389413 73.4164 0.741105 73.8113C1.44327 74.2061 2.33506 73.9614 2.73298 73.2647L9.86885 60.7706Z" fill="#6160FF"/>
</svg>
