<svg width="26" height="26" viewBox="0 0 26 26" fill="none" xmlns="http://www.w3.org/2000/svg">
<path d="M12.9999 0C5.83167 0 0 5.8318 0 13C0 20.1683 5.83167 26 12.9999 26C20.1682 26 25.9997 20.1683 25.9997 13C25.9997 5.8318 20.1682 0 12.9999 0ZM12.9999 4.5C14.4169 4.5 17.5 4.5 17.5 10C17.5 13.1534 15.7528 14.5 13.0828 14.5C10.4129 14.5 8.5 13.1534 8.5 10C8.5 4.5 11.4169 4.5 12.9999 4.5ZM12.9999 24.4218C9.78991 24.4218 6.88493 23.0907 4.80779 20.9514C4.51321 20.6479 4.41987 20.2007 4.56859 19.8048C5.27969 17.9126 6.61193 16.3258 8.3148 15.2859C8.68244 15.0613 9.15317 15.1048 9.4731 15.3936C10.4749 16.2981 11.7242 16.8384 13.0828 16.8384C14.4152 16.8384 15.6425 16.3183 16.6342 15.4449C16.9576 15.1601 17.4308 15.1226 17.7953 15.3525C19.4459 16.393 20.7357 17.9531 21.431 19.8054C21.5797 20.2015 21.4863 20.648 21.1916 20.9516C19.1147 23.0907 16.2097 24.4218 12.9999 24.4218Z" fill="black"/>
</svg>
